<svg xmlns="http://www.w3.org/2000/svg" xmlns:xlink="http://www.w3.org/1999/xlink" version="1.1" x="0px" y="0px" viewBox="0 0 100 125" enable-background="new 0 0 100 100" xml:space="preserve"><circle fill-rule="evenodd" clip-rule="evenodd" cx="21.419" cy="19.619" r="2.269"/><circle fill-rule="evenodd" clip-rule="evenodd" cx="29.331" cy="19.619" r="2.269"/><circle fill-rule="evenodd" clip-rule="evenodd" cx="37.243" cy="19.619" r="2.269"/><path fill-rule="evenodd" clip-rule="evenodd" d="M89.414,87.388L67.113,65.087l18.801-0.001c1.238,0.001,2.242-1,2.24-2.239  c0.002-1.236-1.002-2.242-2.24-2.241l-24.338,0.001l-0.002-0.002v0.001c-1.238,0-2.242,1.003-2.242,2.241v24.34  c0,1.237,1.004,2.242,2.24,2.242c1.238,0,2.242-1.005,2.242-2.242V68.86l22.062,22.062c0.877,0.876,2.479,0.692,3.354-0.184  C90.105,89.864,90.287,88.26,89.414,87.388z"/><path fill-rule="evenodd" clip-rule="evenodd" d="M14.338,30.062l71.82-0.002l0.002,25.766l4.289,0.01l-0.014-39.016  c0-4.592-3.723-8.314-8.314-8.314L17.865,8.529c-4.592,0-8.314,3.723-8.314,8.314v65.919c0,4.59,3.723,8.313,8.314,8.313h36.219  L54.062,86.8h-33.68c-4.006,0-6.533-2.528-6.533-6.532V30.06L14.338,30.062z M20.383,12.806l59.244-0.002  c4.006,0,6.531,2.527,6.531,6.533v6.424L13.85,25.784v-6.445C13.85,15.333,16.377,12.806,20.383,12.806z"/><path fill-rule="evenodd" clip-rule="evenodd" d="M54.457,92.085"/><text x="0" y="115" fill="#000000" font-size="5px" font-weight="bold" font-family="'Helvetica Neue', Helvetica, Arial-Unicode, Arial, Sans-serif">Created by Syafiqa Fickle</text><text x="0" y="120" fill="#000000" font-size="5px" font-weight="bold" font-family="'Helvetica Neue', Helvetica, Arial-Unicode, Arial, Sans-serif">from the Noun Project</text></svg>